Coordinates
version=1
nRows=17
nColumns=40
inDegrees=yes

Units are S.I. units (second, meters, Newtons, ...)
Angles are in degrees.

endheader
time	pelvis_tilt	pelvis_list	pelvis_rotation	pelvis_tx	pelvis_ty	pelvis_tz	hip_flexion_r	hip_adduction_r	hip_rotation_r	knee_angle_r	knee_angle_r_beta	ankle_angle_r	subtalar_angle_r	mtp_angle_r	hip_flexion_l	hip_adduction_l	hip_rotation_l	knee_angle_l	knee_angle_l_beta	ankle_angle_l	subtalar_angle_l	mtp_angle_l	lumbar_extension	lumbar_bending	lumbar_rotation	arm_flex_r	arm_add_r	arm_rot_r	elbow_flex_r	pro_sup_r	wrist_flex_r	wrist_dev_r	arm_flex_l	arm_add_l	arm_rot_l	elbow_flex_l	pro_sup_l	wrist_flex_l	wrist_dev_l
     18.80750000	     -3.95472723	     -5.72689518	     -3.80747875	      1.04873923	      0.93402898	      0.42222217	     32.14952084	     -4.11002326	     -5.03316521	     62.30261007	     62.30261007	     -2.78064509	    -11.98125509	     -1.66491710	     12.15773708	     -7.38558090	     -6.46178625	     22.25804342	     22.25804342	     15.35110106	    -12.24899196	      3.06139645	    -11.21331002	      5.62452014	      1.83121396	      2.84167397	    -14.64656927	    -10.06512441	     27.18789831	     46.73431990	      0.00000000	      0.00000000	      5.70136720	    -18.77723797	     -1.40721083	     68.16070586	     46.45727322	      0.00000000	      0.00000000
     18.82100000	     -3.90471276	     -5.76766802	     -4.31355796	      1.04794688	      0.93506759	      0.42264697	     32.35579150	     -3.80305008	     -5.18322301	     59.63213974	     59.63213974	     -2.19637330	    -10.87138952	     -1.94131607	     11.17621010	     -7.40168814	     -6.94835874	     21.34562027	     21.34562027	     15.32798004	    -12.16726973	      3.13389989	    -11.45491307	      5.61739537	      1.96715523	      2.60368234	    -14.58566522	    -10.26757519	     26.95471089	     46.75482270	      0.00000000	      0.00000000	      6.06418069	    -18.84343275	     -1.31255720	     69.62533332	     46.48724259	      0.00000000	      0.00000000
     18.83450000	     -4.20315975	     -5.77000651	     -4.84945334	      1.04675661	      0.93533472	      0.42331400	     32.88050477	     -3.38749380	     -5.20349957	     56.58512356	     56.58512356	     -1.65574069	     -9.92153886	     -1.97003906	     10.82006406	     -7.43798306	     -7.41438257	     20.83935798	     20.83935798	     15.34287351	    -12.25831213	      3.19731584	    -11.29880985	      5.57389331	      1.92735832	      2.56424725	    -14.35421096	    -10.31081757	     26.91487699	     46.75789654	      0.00000000	      0.00000000	      6.52914187	    -19.02290048	     -1.33808567	     70.31456080	     46.50691726	      0.00000000	      0.00000000
     18.84800000	     -4.08826513	     -5.83414529	     -5.33336521	      1.04611722	      0.93628291	      0.42387864	     32.56809304	     -3.10371790	     -5.56936722	     52.86684876	     52.86684876	     -1.07185210	     -8.28083935	     -2.37546323	      9.68170282	     -7.42916402	     -7.82021610	     19.77303328	     19.77303328	     15.33764009	    -12.17645265	      3.26849744	    -11.62662947	      5.60701849	      2.12708458	      2.45087753	    -14.35652655	    -10.51721952	     26.73601551	     46.77818546	      0.00000000	      0.00000000	      6.76687879	    -18.97006558	     -1.18964159	     72.01055763	     46.53574181	      0.00000000	      0.00000000
     18.86150000	     -4.20580232	     -5.71948888	     -5.86760544	      1.04513318	      0.93647588	      0.42469301	     32.39744521	     -2.84362090	     -5.72874013	     48.70776494	     48.70776494	     -1.26376877	     -7.09934708	     -4.83804611	      8.97664493	     -7.25908610	     -8.17609735	     18.95905543	     18.95905543	     14.97898600	    -12.53730059	      2.64080097	    -11.79166535	      5.38281044	      1.74755722	      3.00158160	    -13.89709601	    -11.58337209	     26.44983121	     46.86152450	      0.00000000	      0.00000000	      6.05404319	    -19.65983791	     -1.12221132	     75.42006354	     46.64748168	      0.00000000	      0.00000000
     18.87500000	     -4.40510789	     -5.70916372	     -6.35825879	      1.04416399	      0.93648790	      0.42562878	     32.12494452	     -2.43671557	     -5.99814340	     44.26746558	     44.26746558	     -0.72601157	     -5.51067652	     -4.77604174	      8.48682756	     -7.25877506	     -8.57121907	     18.41536769	     18.41536769	     15.03973930	    -12.56903379	      2.67046461	    -11.75925526	      5.37095173	      1.86708456	      3.13069063	    -13.73880407	    -11.63755781	     26.38829996	     46.86687725	      0.00000000	      0.00000000	      6.57238726	    -19.52349352	     -1.18855413	     76.00572191	     46.67391134	      0.00000000	      0.00000000
     18.88850000	     -4.47511531	     -5.59372793	     -6.80831216	      1.04335024	      0.93641180	      0.42657058	     31.42868960	     -2.18931118	     -6.43786630	     39.33950737	     39.33950737	     -0.87122443	     -3.76327780	     -6.80644124	      7.82086920	     -7.10160845	     -8.92942257	     17.77392921	     17.77392921	     14.91682388	    -12.73197746	      2.29244565	    -11.90922114	      5.20399584	      1.78974840	      3.63860306	    -13.41231927	    -12.48964067	     25.98231868	     46.92880320	      0.00000000	      0.00000000	      6.60265879	    -19.56128577	     -1.41830983	     77.76216597	     46.81554220	      0.00000000	      0.00000000
     18.90200000	     -4.75068851	     -5.58141626	     -7.19839503	      1.04244069	      0.93586274	      0.42773376	     30.81458150	     -1.69870056	     -6.83457496	     34.35612306	     34.35612306	     -0.39872327	     -2.00601735	     -6.22407567	      7.56852981	     -7.13480899	     -9.21602405	     17.49298315	     17.49298315	     15.05869084	    -12.83107483	      2.24294132	    -11.78303030	      5.22228078	      1.87664722	      3.86716040	    -13.16711997	    -12.48489048	     26.04926590	     46.92443290	      0.00000000	      0.00000000	      7.10450505	    -19.45193869	     -1.35712525	     78.34896949	     46.83206889	      0.00000000	      0.00000000
     18.91550000	     -4.84521250	     -5.56031162	     -7.50173699	      1.04181072	      0.93533115	      0.42889031	     29.77677678	     -1.27912045	     -7.49794192	     29.26735957	     29.26735957	      0.05980351	      0.15388252	     -5.45911656	      7.14390746	     -7.13876818	     -9.46063061	     17.27232379	     17.27232379	     15.23450328	    -12.86146744	      2.10410115	    -11.84233452	      5.20603774	      1.96176994	      4.12393656	    -13.03422912	    -12.50435396	     26.14023948	     46.92079665	      0.00000000	      0.00000000	      7.54394401	    -19.30219640	     -1.20240381	     79.18066829	     46.84864494	      0.00000000	      0.00000000
     18.92900000	     -4.93311418	     -5.48886951	     -7.74412196	      1.04134785	      0.93450418	      0.43017385	     28.66882138	     -0.91094663	     -8.31759543	     24.42826642	     24.42826642	      0.54320101	      2.52178851	     -4.27946453	      6.77363031	     -7.11089338	     -9.70028512	     17.16020467	     17.16020467	     15.46136460	    -12.84621998	      1.82420493	    -11.88398559	      5.13209935	      2.00326316	      4.44676704	    -12.82614000	    -12.52516899	     26.30734608	     46.91278269	      0.00000000	      0.00000000	      7.91741890	    -19.22101070	     -0.97571652	     80.15376766	     46.86686525	      0.00000000	      0.00000000
     18.94250000	     -5.06962232	     -5.44321698	     -7.90816817	      1.04112036	      0.93340879	      0.43156275	     27.59799306	     -0.47389039	     -9.15756719	     20.05076822	     20.05076822	      1.00257400	      4.59361498	     -2.64245102	      6.50134009	     -7.13208146	     -9.86401089	     17.14957832	     17.14957832	     15.71282667	    -12.85464735	      1.48413339	    -11.80407324	      5.12903339	      1.98608146	      4.76494601	    -12.59852876	    -12.51848822	     26.51225591	     46.90073334	      0.00000000	      0.00000000	      8.21846958	    -19.12809716	     -0.72735085	     80.99228580	     46.88081823	      0.00000000	      0.00000000
     18.95600000	     -5.10732429	     -5.33956721	     -8.02718895	      1.04113536	      0.93229665	      0.43301498	     26.60679861	     -0.18887168	    -10.27687906	     16.61210402	     16.61210402	      1.98217798	      6.94546353	      0.33505543	      6.12963336	     -7.10052652	    -10.13457044	     17.15076680	     17.15076680	     15.94967552	    -12.67773499	      0.95175472	    -11.81096500	      5.04733566	      1.95904433	      5.12911400	    -12.35122209	    -12.46925445	     26.85560750	     46.87435921	      0.00000000	      0.00000000	      8.46165349	    -19.09750066	     -0.37874499	     82.00367986	     46.90588420	      0.00000000	      0.00000000
     18.96950000	     -5.32354543	     -5.28933237	     -8.10496440	      1.04123670	      0.93096815	      0.43453868	     26.09135206	      0.14668232	    -11.21070892	     14.37108844	     14.37108844	      3.96640632	      8.54721802	      6.41351290	      5.99127820	     -7.14233746	    -10.20622650	     17.22619753	     17.22619753	     16.15314627	    -12.73859188	      0.41812031	    -11.55305173	      5.11067218	      1.94394851	      5.34710807	    -12.21249729	    -12.08661724	     27.40556098	     46.78745245	      0.00000000	      0.00000000	      8.66872521	    -18.91454470	     -0.04323545	     82.59612919	     46.99712336	      0.00000000	      0.00000000
     18.98300000	     -5.44199729	     -5.21918107	     -8.13964185	      1.04172696	      0.92967291	      0.43620797	     25.35879512	      0.49973537	    -11.88636518	     12.39596484	     12.39596484	      4.07738150	      9.29189742	      6.91215367	      5.72219030	     -7.14486128	    -10.22106305	     17.30028522	     17.30028522	     16.52119840	    -12.77934461	      0.27505730	    -11.33996081	      5.14940664	      1.95840618	      5.70289294	    -12.03073329	    -11.99221222	     27.59991403	     46.77090845	      0.00000000	      0.00000000	      8.93416339	    -18.63361917	      0.14722197	     82.88859201	     47.00196152	      0.00000000	      0.00000000
     18.99650000	     -5.47824143	     -5.17603826	     -8.13271336	      1.04250372	      0.92854208	      0.43792426	     24.70225010	      0.77592152	    -12.56831258	     11.33537318	     11.33537318	      4.20659479	      9.79036486	      7.13776622	      5.32056744	     -7.17124444	    -10.27146118	     17.32741320	     17.32741320	     16.90896898	    -12.68402615	      0.19099491	    -11.17628265	      5.22727646	      1.97575005	      6.10982694	    -11.89156965	    -11.86925799	     27.87990268	     46.74879420	      0.00000000	      0.00000000	      9.12338212	    -18.30438183	      0.40602046	     83.15960739	     47.00205585	      0.00000000	      0.00000000
     19.01000000	     -5.49285622	     -5.15726788	     -8.10037582	      1.04356860	      0.92751191	      0.43977820	     24.10924231	      1.00597292	    -13.14355611	     10.94353121	     10.94353121	      4.19109296	     10.03553504	      6.78872800	      4.85774061	     -7.23811921	    -10.38450992	     17.33049641	     17.33049641	     17.41349793	    -12.39830327	      0.29704950	    -11.01189474	      5.34917171	      2.03164880	      6.41985418	    -11.81234956	    -11.61315386	     28.33372453	     46.70488626	      0.00000000	      0.00000000	      9.21648739	    -18.00133595	      0.73784621	     83.39856152	     47.00620946	      0.00000000	      0.00000000
     19.02350000	     -5.48580882	     -5.09231594	     -8.02984106	      1.04485968	      0.92640312	      0.44173417	     23.59306539	      1.16485782	    -13.25990174	     11.04172729	     11.04172729	      3.33306097	      9.47329695	      3.75170615	      4.43394009	     -7.29049186	    -10.55439908	     17.50305945	     17.50305945	     18.35448693	    -11.80159084	      1.26239704	    -10.82968258	      5.43893840	      2.17192120	      6.39769318	    -11.87986641	    -10.66612282	     29.51138211	     46.56020488	      0.00000000	      0.00000000	      9.30119657	    -17.70012790	      1.20770402	     83.52583278	     47.04713669	      0.00000000	      0.00000000
